# xmcd
#
# Track frame offsets: 
#        183
#        16528
#        26363
#        44610
#        68375
#        78803
#        89533
#        104270
#        120405
#        131485
#        144890
#        163635
#        174678
#        185813
#        197968
#        212303
#        229835
#        244060
#        254430
#        276178
#        289278
#        301605
#        310243
#        322763
#        332280
#
# Disc length: 4613 seconds
#
# Revision: 1
# Processed by: cddbd v1.5.2PL0 Copyright (c) Steve Scherf et al.
# Submitted via: ExactAudioCopyFreeDBPlugin 1.0
#
DISCID=49120319
DTITLE=Nina Simone - Collection
DYEAR=1993
DGENRE=Blues
TTITLE0=My Baby Just Cares for Me
TTITLE1=Ain't Got No - I Got Life
TTITLE2=Don't Let Me Be Misunderstood
TTITLE3=Ne Me Quitte Pas
TTITLE4=The Laziest Girl in Town
TTITLE5=You Better Know It
TTITLE6=Angel of the Morning
TTITLE7=Here Comes the Sun
TTITLE8=Hey Buddy Bolden
TTITLE9=I Like the Sunrise
TTITLE10=I Loves You Porgy
TTITLE11=I Want a Little Sugar in My Bowl
TTITLE12=It Don't Mean a Thing If It Ain't Got That Swing
TTITLE13=Ain't No Use
TTITLE14=Backlash Blues
TTITLE15=For All We Know
TTITLE16=Black Is the Color
TTITLE17=Peace of Mind
TTITLE18=The House of the Rising Sun
TTITLE19=Something to Live For
TTITLE20=I Am Blessed
TTITLE21=How Can I Make Him Love Me?
TTITLE22=Do Nothin' Till You Hear From Me
TTITLE23=The Gal from Joe's
TTITLE24=Central Park Blues
EXTD=YEAR: 1993 ID3G:   0
EXTT0=
EXTT1=
EXTT2=
EXTT3=
EXTT4=
EXTT5=
EXTT6=
EXTT7=
EXTT8=
EXTT9=
EXTT10=
EXTT11=
EXTT12=
EXTT13=
EXTT14=
EXTT15=
EXTT16=
EXTT17=
EXTT18=
EXTT19=
EXTT20=
EXTT21=
EXTT22=
EXTT23=
EXTT24=
PLAYORDER=
